<?xml version="1.0" encoding="utf-8"?>
<!-- Generator: Adobe Illustrator 24.0.1, SVG Export Plug-In . SVG Version: 6.00 Build 0)  -->
<svg version="1.1" id="Capa_1" xmlns="http://www.w3.org/2000/svg" xmlns:xlink="http://www.w3.org/1999/xlink" x="0px" y="0px"
	 viewBox="0 0 290 88" style="enable-background:new 0 0 290 88;" xml:space="preserve">
<style type="text/css">
	.st0{fill:#00FC6B;}
	.st1{fill:#FFFFFF;}
</style>
<g>
	<path class="st0" d="M20.3,11.5L20.3,11.5c0.1-0.3,0.3-0.6,0.4-0.8l0.2-0.3l0,0c3.4-5.6,9.4-9.1,15.9-9.2c7-0.1,13.5,3.6,17,9.7
		l17.9,31.7c3.4,6,3.3,13-0.2,19C68,67.5,61.9,71,55,71c-0.4,0-0.8,0-1.2,0c-0.1,0-0.1,0-0.2,0c-0.4,0-0.7-0.1-1.1-0.1
		c-0.1,0-0.1,0-0.2,0c-5.8-0.8-11-4.3-13.9-9.5l-9.7-17.2c-1.7-3-4.5-3.3-5.6-3.2c-0.1,0-0.3,0-0.5,0c-0.2,0-0.3,0-0.5,0.1
		c0,0-0.1,0-0.1,0c-0.1,0-0.2,0-0.2,0.1c0,0-0.1,0-0.1,0c-0.1,0-0.2,0-0.3,0.1c0,0-0.1,0-0.1,0c-0.1,0-0.2,0.1-0.2,0.1
		c0,0-0.1,0-0.1,0c-0.1,0-0.2,0.1-0.2,0.1c-0.1,0-0.1,0-0.2,0.1c-0.1,0-0.1,0.1-0.2,0.1c-0.1,0-0.1,0.1-0.2,0.1
		c-0.1,0-0.1,0.1-0.2,0.1c-0.1,0-0.1,0.1-0.2,0.1c-0.1,0-0.1,0.1-0.2,0.1c-0.1,0-0.1,0.1-0.2,0.1c-0.1,0-0.1,0.1-0.2,0.2
		c-0.1,0.1-0.1,0.1-0.2,0.2c-0.1,0.1-0.1,0.1-0.2,0.2c-0.1,0.1-0.1,0.1-0.2,0.2c-0.1,0.1-0.1,0.1-0.2,0.2c-0.1,0.1-0.1,0.1-0.2,0.2
		c-0.1,0.1-0.1,0.2-0.2,0.2c-0.1,0.1-0.1,0.2-0.2,0.3c-0.1,0.1-0.1,0.2-0.2,0.3c-0.1,0.1-0.1,0.2-0.2,0.3l0,0c0,0,0,0,0,0l-2.4,4.7
		c-1.5,2.9-0.3,5.3,0.2,6.2c0.6,0.9,2.2,3,5.4,3h10.9L37.9,71H20.8c-6.7,0-12.8-3.4-16.3-9.1c-3.5-5.7-3.7-12.7-0.7-18.6l2.4-4.7
		c3.2-6.2,9.6-10.2,16.6-10.3c1.3,0,2.5,0.1,3.7,0.3c0.1,0,0.1,0,0.2,0c0.8,0.2,1.6,0.4,2.4,0.6c0.1,0,0.1,0,0.2,0.1
		c0.3,0.1,0.6,0.2,1,0.4c0.1,0,0.2,0.1,0.2,0.1c0.3,0.1,0.6,0.3,0.9,0.4c0.1,0,0.2,0.1,0.3,0.1c0.3,0.1,0.6,0.3,0.9,0.5
		c0.1,0,0.1,0.1,0.2,0.1c0.3,0.2,0.6,0.4,0.9,0.6c0,0,0.1,0,0.1,0.1c0.7,0.5,1.3,1,2,1.5c0.1,0,0.1,0.1,0.2,0.2
		c0.2,0.2,0.5,0.4,0.7,0.7c0.1,0.1,0.2,0.2,0.3,0.3c0.2,0.2,0.4,0.4,0.6,0.6c0.1,0.1,0.2,0.2,0.3,0.3c0.2,0.2,0.3,0.4,0.5,0.6
		c0.1,0.1,0.2,0.2,0.3,0.3c0.2,0.2,0.3,0.5,0.5,0.7c0.1,0.1,0.1,0.2,0.2,0.3c0.2,0.3,0.4,0.7,0.6,1l9.7,17.2c1.1,2,3.2,3.2,5.5,3.2
		c3.3,0,4.9-2.2,5.5-3.1s1.7-3.5,0.1-6.3L42.7,17.1c-0.1-0.2-0.2-0.4-0.3-0.5c0-0.1-0.1-0.1-0.1-0.2c-0.1-0.1-0.1-0.2-0.2-0.3
		c-0.1-0.1-0.1-0.2-0.2-0.2c-0.1-0.1-0.1-0.1-0.2-0.2c-0.1-0.1-0.2-0.2-0.2-0.2c0,0-0.1-0.1-0.1-0.1c-0.1-0.1-0.2-0.2-0.3-0.2
		c0,0-0.1-0.1-0.1-0.1c-0.1-0.1-0.2-0.1-0.3-0.2c0,0,0,0-0.1,0c-0.1-0.1-0.2-0.1-0.3-0.2c0,0,0,0,0,0c-0.1-0.1-0.3-0.1-0.4-0.2
		c0,0,0,0,0,0c-1-0.4-2-0.5-2.6-0.5c0,0,0,0,0,0c0,0-0.1,0-0.1,0c-0.1,0-0.3,0-0.5,0c-1.2,0.1-3.3,0.7-4.7,2.9L28.1,24H13.8
		L20.3,11.5z"/>
	<g>
		<path class="st1" d="M128.5,64.3l-5-13.3H97.6l-5.2,13.3h-6.5l21.3-54.4h6.8l21.1,54.4H128.5z M110.6,16.9L99.3,46h22.4
			L110.6,16.9z"/>
		<path class="st1" d="M141.5,64.3V9.3h5.7v55.1H141.5z"/>
		<path class="st1" d="M190.5,52.5c-2.3,8.3-8.6,13-16.8,13c-12.8,0-19.2-7.3-19.2-22c0-12.5,6.8-20.5,18.6-20.5
			c11.7,0,18,8.4,18,22.5h-30.8c0.2,9.9,4.9,15.3,13.2,15.3c5.3,0,9.6-3,11.1-8.4H190.5z M185.2,41.7c-0.2-8.8-4.9-14.1-12.2-14.1
			c-7.5,0-12.3,5.4-12.5,14.1H185.2z"/>
		<path class="st1" d="M225.6,36.2c-0.5-6-3.4-8.9-11.6-8.9c-6.2,0-10.1,1.6-10.1,6.5c0,3.4,1.8,5.1,6,6.1c3.9,1,9.8,1.3,15.1,3.3
			c3.3,1.2,7.2,3.3,7.2,9.5c0,7.5-5.6,12.6-16.8,12.6c-11.6,0-18.3-5.5-18.4-14h5.9c0.2,6.1,4.8,9.6,12.5,9.6c8.6,0,11.5-4.4,11.5-8
			c0-2.3-1.1-3.7-3.6-4.8c-4.3-2-9-2-14.7-3.7c-7.8-2.2-10.2-5.4-10.2-10.1c0-7.1,5.4-11.4,16.1-11.4c11.9,0,16.3,5.2,16.6,13.3
			H225.6z"/>
		<path class="st1" d="M239.1,19.2V9.3h5.7v9.9H239.1z M239.1,64.3V24h5.7v40.3H239.1z"/>
		<path class="st1" d="M281.4,64.3c-0.2-0.5-0.2-6.7-0.3-7.4c-1.9,4.8-7.8,8.4-15,8.4c-9.7,0-13.7-4.5-13.7-11.2
			c0-10.3,6.9-12.1,17.5-13.3c6.8-0.7,10.7-1.3,11.1-3.8c0-6.1-3.1-9.7-10.7-9.7c-7.8,0-10.8,3.7-11.1,9.7h-5.4
			c0.2-8.4,4.5-14.2,16.8-14.2c12.2,0,16.4,5.7,16.4,15.9v25.5H281.4z M281,42.5c-1.2,1.6-5.2,1.6-11.1,2.4
			c-7.8,1-11.8,2.5-11.8,8.8c0,4.8,2.7,7.5,9.2,7.5c6.8,0,13.3-4.3,13.7-11.5L281,42.5z"/>
	</g>
	<g>
		<path class="st1" d="M241.4,74.6h2.1v10.1h6.3v1.9h-8.5V74.6z"/>
		<path class="st1" d="M256.9,74.5h2l5.3,12.1h-2.2l-1.2-2.9H255l-1.2,2.9h-2.2L256.9,74.5z M259.9,81.9l-2.1-4.8l-2.1,4.8H259.9z"
			/>
		<path class="st1" d="M266.7,74.6h5.4c1.4,0,2.5,0.4,3.2,1.1c0.5,0.5,0.8,1.2,0.8,2v0c0,1.4-0.8,2.2-1.7,2.7
			c1.4,0.5,2.4,1.3,2.4,2.9v0c0,2.2-1.8,3.3-4.5,3.3h-5.6V74.6z M271.7,79.7c1.4,0,2.3-0.5,2.3-1.6v0c0-0.9-0.8-1.5-2.1-1.5h-3v3.2
			H271.7z M272.3,84.8c1.4,0,2.3-0.6,2.3-1.7v0c0-1-0.8-1.6-2.5-1.6h-3.4v3.3H272.3z"/>
		<path class="st1" d="M278.9,84.9l1.3-1.5c1.2,1,2.3,1.6,3.8,1.6c1.3,0,2.1-0.6,2.1-1.5v0c0-0.9-0.5-1.3-2.7-1.8
			c-2.6-0.6-4-1.4-4-3.6v0c0-2.1,1.7-3.5,4.1-3.5c1.8,0,3.2,0.5,4.4,1.5l-1.1,1.6c-1.1-0.8-2.2-1.2-3.3-1.2c-1.2,0-2,0.6-2,1.4v0
			c0,0.9,0.6,1.3,2.9,1.9c2.5,0.6,3.9,1.5,3.9,3.5v0c0,2.3-1.8,3.6-4.3,3.6C282.1,86.8,280.3,86.2,278.9,84.9z"/>
	</g>
</g>
</svg>
